<svg width="197" height="21" viewBox="0 0 197 21" fill="none" xmlns="http://www.w3.org/2000/svg">
<path d="M11.5195 8.99805C11.5195 9.64258 11.4349 10.2643 11.2656 10.8633C11.1029 11.4557 10.8685 12.0124 10.5625 12.5332C10.2565 13.0475 9.89193 13.5195 9.46875 13.9492C9.04557 14.3724 8.57357 14.737 8.05273 15.043C7.5319 15.349 6.97201 15.5866 6.37305 15.7559C5.7806 15.9186 5.16211 16 4.51758 16H0.298828V1.99609H4.51758C5.16211 1.99609 5.7806 2.08073 6.37305 2.25C6.97201 2.41276 7.5319 2.64714 8.05273 2.95312C8.57357 3.25911 9.04557 3.62695 9.46875 4.05664C9.89193 4.47982 10.2565 4.95182 10.5625 5.47266C10.8685 5.98698 11.1029 6.54362 11.2656 7.14258C11.4349 7.73503 11.5195 8.35352 11.5195 8.99805ZM8.7168 8.99805C8.7168 8.41862 8.60612 7.875 8.38477 7.36719C8.16992 6.85938 7.87044 6.41667 7.48633 6.03906C7.10872 5.65495 6.66276 5.35221 6.14844 5.13086C5.64062 4.90951 5.09701 4.79883 4.51758 4.79883H3.12109V13.1973H4.51758C5.09701 13.1973 5.64062 13.0898 6.14844 12.875C6.66276 12.6536 7.10872 12.3542 7.48633 11.9766C7.87044 11.5924 8.16992 11.1465 8.38477 10.6387C8.60612 10.1243 8.7168 9.57747 8.7168 8.99805ZM15.7676 16H13.1016V5.54102H13.7461L14.625 6.78125C15.0547 6.39062 15.543 6.09115 16.0898 5.88281C16.6367 5.66797 17.2031 5.56055 17.7891 5.56055H20.1426V8.2168H17.7891C17.5091 8.2168 17.2454 8.26888 16.998 8.37305C16.7507 8.47721 16.5358 8.62044 16.3535 8.80273C16.1712 8.98503 16.028 9.19987 15.9238 9.44727C15.8197 9.69466 15.7676 9.95833 15.7676 10.2383V16ZM31.3145 16H30.6699L29.6348 14.5645C29.3809 14.7923 29.1107 15.0072 28.8242 15.209C28.5443 15.4043 28.248 15.5768 27.9355 15.7266C27.623 15.8698 27.3008 15.9837 26.9688 16.0684C26.6432 16.153 26.3112 16.1953 25.9727 16.1953C25.237 16.1953 24.5436 16.0716 23.8926 15.8242C23.248 15.5768 22.6816 15.2188 22.1934 14.75C21.7116 14.2747 21.3307 13.6953 21.0508 13.0117C20.7708 12.3281 20.6309 11.5501 20.6309 10.6777C20.6309 9.86393 20.7708 9.11849 21.0508 8.44141C21.3307 7.75781 21.7116 7.17188 22.1934 6.68359C22.6816 6.19531 23.248 5.81771 23.8926 5.55078C24.5436 5.27734 25.237 5.14062 25.9727 5.14062C26.3112 5.14062 26.6465 5.18294 26.9785 5.26758C27.3105 5.35221 27.6328 5.4694 27.9453 5.61914C28.2578 5.76888 28.554 5.94466 28.834 6.14648C29.1204 6.34831 29.3874 6.56641 29.6348 6.80078L30.6699 5.56055H31.3145V16ZM28.6289 10.6777C28.6289 10.3132 28.5573 9.96159 28.4141 9.62305C28.2773 9.27799 28.0885 8.97526 27.8477 8.71484C27.6068 8.44792 27.3236 8.23633 26.998 8.08008C26.679 7.91732 26.3372 7.83594 25.9727 7.83594C25.6081 7.83594 25.263 7.89779 24.9375 8.02148C24.6185 8.14518 24.3385 8.32747 24.0977 8.56836C23.8633 8.80924 23.6777 9.10872 23.541 9.4668C23.4043 9.81836 23.3359 10.222 23.3359 10.6777C23.3359 11.1335 23.4043 11.5404 23.541 11.8984C23.6777 12.25 23.8633 12.5462 24.0977 12.7871C24.3385 13.028 24.6185 13.2103 24.9375 13.334C25.263 13.4577 25.6081 13.5195 25.9727 13.5195C26.3372 13.5195 26.679 13.4414 26.998 13.2852C27.3236 13.1224 27.6068 12.9108 27.8477 12.6504C28.0885 12.3835 28.2773 12.0807 28.4141 11.7422C28.5573 11.3971 28.6289 11.0423 28.6289 10.6777ZM40.7969 10.6777C40.7969 10.3132 40.7253 9.96159 40.582 9.62305C40.4453 9.27799 40.2565 8.97526 40.0156 8.71484C39.7747 8.44792 39.4915 8.23633 39.166 8.08008C38.847 7.91732 38.5052 7.83594 38.1406 7.83594C37.776 7.83594 37.431 7.89779 37.1055 8.02148C36.7865 8.14518 36.5065 8.32747 36.2656 8.56836C36.0312 8.80924 35.8457 9.10872 35.709 9.4668C35.5723 9.81836 35.5039 10.222 35.5039 10.6777C35.5039 11.1139 35.5723 11.5078 35.709 11.8594C35.8457 12.2044 36.0312 12.5007 36.2656 12.748C36.5065 12.9954 36.7865 13.1875 37.1055 13.3242C37.431 13.4544 37.776 13.5195 38.1406 13.5195C38.5052 13.5195 38.847 13.4414 39.166 13.2852C39.4915 13.1224 39.7747 12.9108 40.0156 12.6504C40.2565 12.3835 40.4453 12.0807 40.582 11.7422C40.7253 11.3971 40.7969 11.0423 40.7969 10.6777ZM43.4824 14.6816C43.4824 15.4173 43.3424 16.1074 43.0625 16.752C42.7826 17.3965 42.3984 17.9596 41.9102 18.4414C41.4284 18.9232 40.862 19.304 40.2109 19.584C39.5664 19.8639 38.8763 20.0039 38.1406 20.0039L36.8027 19.9844V17.3184L38.1211 17.3379C38.5378 17.3379 38.8926 17.2826 39.1855 17.1719C39.4785 17.0677 39.7259 16.9212 39.9277 16.7324C40.1296 16.5501 40.2891 16.3385 40.4062 16.0977C40.5299 15.8568 40.6276 15.6029 40.6992 15.3359C40.5951 15.5052 40.4453 15.6452 40.25 15.7559C40.0547 15.86 39.8366 15.9447 39.5957 16.0098C39.3613 16.0814 39.1139 16.1302 38.8535 16.1562C38.5996 16.1823 38.362 16.1953 38.1406 16.1953C37.4049 16.1953 36.7116 16.0684 36.0605 15.8145C35.416 15.5605 34.8496 15.1992 34.3613 14.7305C33.8796 14.2552 33.4987 13.6758 33.2188 12.9922C32.9388 12.3086 32.7988 11.5371 32.7988 10.6777C32.7988 9.88997 32.9388 9.15755 33.2188 8.48047C33.4987 7.80339 33.8796 7.21745 34.3613 6.72266C34.8496 6.22786 35.416 5.84049 36.0605 5.56055C36.7116 5.2806 37.4049 5.14062 38.1406 5.14062C38.4792 5.14062 38.8145 5.18294 39.1465 5.26758C39.4785 5.35221 39.8008 5.4694 40.1133 5.61914C40.4258 5.76888 40.722 5.94466 41.002 6.14648C41.2884 6.34831 41.5553 6.56641 41.8027 6.80078L42.8379 5.56055H43.4824V14.6816ZM55.6309 10.6777C55.6309 11.459 55.4909 12.1882 55.2109 12.8652C54.931 13.5358 54.5501 14.1185 54.0684 14.6133C53.5866 15.1016 53.0202 15.4889 52.3691 15.7754C51.7246 16.0553 51.0312 16.1953 50.2891 16.1953C49.5534 16.1953 48.86 16.0553 48.209 15.7754C47.5645 15.4889 46.998 15.1016 46.5098 14.6133C46.028 14.1185 45.6471 13.5358 45.3672 12.8652C45.0872 12.1882 44.9473 11.459 44.9473 10.6777C44.9473 9.88346 45.0872 9.14779 45.3672 8.4707C45.6471 7.79362 46.028 7.21094 46.5098 6.72266C46.998 6.22786 47.5645 5.84049 48.209 5.56055C48.86 5.2806 49.5534 5.14062 50.2891 5.14062C51.0312 5.14062 51.7246 5.27409 52.3691 5.54102C53.0202 5.80143 53.5866 6.17578 54.0684 6.66406C54.5501 7.14583 54.931 7.72852 55.2109 8.41211C55.4909 9.08919 55.6309 9.8444 55.6309 10.6777ZM52.9453 10.6777C52.9453 10.248 52.8737 9.86068 52.7305 9.51562C52.5938 9.16406 52.4049 8.86458 52.1641 8.61719C51.9232 8.36328 51.64 8.17122 51.3145 8.04102C50.9954 7.9043 50.6536 7.83594 50.2891 7.83594C49.9245 7.83594 49.5794 7.9043 49.2539 8.04102C48.9349 8.17122 48.6549 8.36328 48.4141 8.61719C48.1797 8.86458 47.9941 9.16406 47.8574 9.51562C47.7207 9.86068 47.6523 10.248 47.6523 10.6777C47.6523 11.0814 47.7207 11.4557 47.8574 11.8008C47.9941 12.1458 48.1797 12.4453 48.4141 12.6992C48.6549 12.9531 48.9349 13.1549 49.2539 13.3047C49.5794 13.4479 49.9245 13.5195 50.2891 13.5195C50.6536 13.5195 50.9954 13.4512 51.3145 13.3145C51.64 13.1777 51.9232 12.9857 52.1641 12.7383C52.4049 12.4909 52.5938 12.1914 52.7305 11.8398C52.8737 11.4883 52.9453 11.1009 52.9453 10.6777ZM59.7715 16H57.1055V5.54102H57.75L58.6289 6.55664C59.0586 6.16602 59.5436 5.86654 60.084 5.6582C60.6309 5.44336 61.2005 5.33594 61.793 5.33594C62.431 5.33594 63.0332 5.45964 63.5996 5.70703C64.166 5.94792 64.6608 6.2832 65.084 6.71289C65.5072 7.13607 65.8392 7.63411 66.0801 8.20703C66.3275 8.77344 66.4512 9.37891 66.4512 10.0234V16H63.7852V10.0234C63.7852 9.75 63.7331 9.49284 63.6289 9.25195C63.5247 9.00456 63.3815 8.78971 63.1992 8.60742C63.0169 8.42513 62.8053 8.2819 62.5645 8.17773C62.3236 8.07357 62.0664 8.02148 61.793 8.02148C61.513 8.02148 61.2493 8.07357 61.002 8.17773C60.7546 8.2819 60.5397 8.42513 60.3574 8.60742C60.1751 8.78971 60.0319 9.00456 59.9277 9.25195C59.8236 9.49284 59.7715 9.75 59.7715 10.0234V16ZM88.1406 16H85.3477V6C85.3477 5.80469 85.3086 5.6224 85.2305 5.45312C85.1589 5.28385 85.0579 5.13737 84.9277 5.01367C84.804 4.88346 84.6576 4.78255 84.4883 4.71094C84.319 4.63932 84.1367 4.60352 83.9414 4.60352C83.7461 4.60352 83.5638 4.63932 83.3945 4.71094C83.2253 4.78255 83.0755 4.88346 82.9453 5.01367C82.8216 5.13737 82.724 5.28385 82.6523 5.45312C82.5807 5.6224 82.5449 5.80469 82.5449 6V16H79.7422V6C79.7422 5.80469 79.7064 5.6224 79.6348 5.45312C79.5632 5.28385 79.4622 5.13737 79.332 5.01367C79.2083 4.88346 79.0618 4.78255 78.8926 4.71094C78.7233 4.63932 78.541 4.60352 78.3457 4.60352C78.1504 4.60352 77.9681 4.63932 77.7988 4.71094C77.6296 4.78255 77.4798 4.88346 77.3496 5.01367C77.2259 5.13737 77.1283 5.28385 77.0566 5.45312C76.985 5.6224 76.9492 5.80469 76.9492 6V16H74.1465V6C74.1465 5.42057 74.2539 4.87695 74.4688 4.36914C74.6901 3.85482 74.9896 3.40885 75.3672 3.03125C75.7513 2.64714 76.1973 2.34766 76.7051 2.13281C77.2194 1.91146 77.7663 1.80078 78.3457 1.80078C78.8665 1.80078 79.3678 1.89518 79.8496 2.08398C80.3314 2.26628 80.7643 2.5332 81.1484 2.88477C81.5326 2.5332 81.9622 2.26628 82.4375 2.08398C82.9193 1.89518 83.4206 1.80078 83.9414 1.80078C84.5208 1.80078 85.0645 1.91146 85.5723 2.13281C86.0866 2.34766 86.5326 2.64714 86.9102 3.03125C87.2943 3.40885 87.5938 3.85482 87.8086 4.36914C88.0299 4.87695 88.1406 5.42057 88.1406 6V16ZM100.377 16H99.7324L98.6973 14.5645C98.4434 14.7923 98.1732 15.0072 97.8867 15.209C97.6068 15.4043 97.3105 15.5768 96.998 15.7266C96.6855 15.8698 96.3633 15.9837 96.0312 16.0684C95.7057 16.153 95.3737 16.1953 95.0352 16.1953C94.2995 16.1953 93.6061 16.0716 92.9551 15.8242C92.3105 15.5768 91.7441 15.2188 91.2559 14.75C90.7741 14.2747 90.3932 13.6953 90.1133 13.0117C89.8333 12.3281 89.6934 11.5501 89.6934 10.6777C89.6934 9.86393 89.8333 9.11849 90.1133 8.44141C90.3932 7.75781 90.7741 7.17188 91.2559 6.68359C91.7441 6.19531 92.3105 5.81771 92.9551 5.55078C93.6061 5.27734 94.2995 5.14062 95.0352 5.14062C95.3737 5.14062 95.709 5.18294 96.041 5.26758C96.373 5.35221 96.6953 5.4694 97.0078 5.61914C97.3203 5.76888 97.6165 5.94466 97.8965 6.14648C98.1829 6.34831 98.4499 6.56641 98.6973 6.80078L99.7324 5.56055H100.377V16ZM97.6914 10.6777C97.6914 10.3132 97.6198 9.96159 97.4766 9.62305C97.3398 9.27799 97.151 8.97526 96.9102 8.71484C96.6693 8.44792 96.3861 8.23633 96.0605 8.08008C95.7415 7.91732 95.3997 7.83594 95.0352 7.83594C94.6706 7.83594 94.3255 7.89779 94 8.02148C93.681 8.14518 93.401 8.32747 93.1602 8.56836C92.9258 8.80924 92.7402 9.10872 92.6035 9.4668C92.4668 9.81836 92.3984 10.222 92.3984 10.6777C92.3984 11.1335 92.4668 11.5404 92.6035 11.8984C92.7402 12.25 92.9258 12.5462 93.1602 12.7871C93.401 13.028 93.681 13.2103 94 13.334C94.3255 13.4577 94.6706 13.5195 95.0352 13.5195C95.3997 13.5195 95.7415 13.4414 96.0605 13.2852C96.3861 13.1224 96.6693 12.9108 96.9102 12.6504C97.151 12.3835 97.3398 12.0807 97.4766 11.7422C97.6198 11.3971 97.6914 11.0423 97.6914 10.6777ZM105.084 16H102.418V5.54102H103.062L103.941 6.78125C104.371 6.39062 104.859 6.09115 105.406 5.88281C105.953 5.66797 106.52 5.56055 107.105 5.56055H109.459V8.2168H107.105C106.826 8.2168 106.562 8.26888 106.314 8.37305C106.067 8.47721 105.852 8.62044 105.67 8.80273C105.488 8.98503 105.344 9.19987 105.24 9.44727C105.136 9.69466 105.084 9.95833 105.084 10.2383V16ZM113.385 16H110.699V1.38086H113.385V10.5996L117.359 5.56055H120.426L116.959 9.91602L120.426 16H117.359L115.24 12.2012L113.385 14.6621V16ZM125.309 13.4414C125.413 13.474 125.517 13.4967 125.621 13.5098C125.725 13.5163 125.829 13.5195 125.934 13.5195C126.194 13.5195 126.445 13.4837 126.686 13.4121C126.926 13.3405 127.151 13.2396 127.359 13.1094C127.574 12.9727 127.763 12.8099 127.926 12.6211C128.095 12.4258 128.232 12.2109 128.336 11.9766L130.289 13.9395C130.042 14.291 129.755 14.6068 129.43 14.8867C129.111 15.1667 128.762 15.4043 128.385 15.5996C128.014 15.7949 127.62 15.9414 127.203 16.0391C126.793 16.1432 126.37 16.1953 125.934 16.1953C125.198 16.1953 124.505 16.0586 123.854 15.7852C123.209 15.5117 122.643 15.1309 122.154 14.6426C121.673 14.1543 121.292 13.5749 121.012 12.9043C120.732 12.2272 120.592 11.485 120.592 10.6777C120.592 9.85091 120.732 9.0957 121.012 8.41211C121.292 7.72852 121.673 7.14583 122.154 6.66406C122.643 6.18229 123.209 5.80794 123.854 5.54102C124.505 5.27409 125.198 5.14062 125.934 5.14062C126.37 5.14062 126.796 5.19271 127.213 5.29688C127.63 5.40104 128.023 5.55078 128.395 5.74609C128.772 5.94141 129.124 6.18229 129.449 6.46875C129.775 6.7487 130.061 7.06445 130.309 7.41602L125.309 13.4414ZM126.676 7.94336C126.552 7.89779 126.428 7.86849 126.305 7.85547C126.188 7.84245 126.064 7.83594 125.934 7.83594C125.569 7.83594 125.224 7.9043 124.898 8.04102C124.579 8.17122 124.299 8.36003 124.059 8.60742C123.824 8.85482 123.639 9.1543 123.502 9.50586C123.365 9.85091 123.297 10.2415 123.297 10.6777C123.297 10.7754 123.3 10.8861 123.307 11.0098C123.32 11.1335 123.336 11.2604 123.355 11.3906C123.382 11.5143 123.411 11.6348 123.443 11.752C123.476 11.8691 123.518 11.9733 123.57 12.0645L126.676 7.94336ZM136.9 16C136.256 16 135.65 15.8796 135.084 15.6387C134.518 15.3913 134.02 15.056 133.59 14.6328C133.167 14.2031 132.831 13.7051 132.584 13.1387C132.343 12.5723 132.223 11.9668 132.223 11.3223V8.2168H130.924V5.56055H132.223V1.38086H134.879V5.56055H138.922V8.2168H134.879V11.3223C134.879 11.6022 134.931 11.8659 135.035 12.1133C135.139 12.3542 135.283 12.5658 135.465 12.748C135.647 12.9303 135.862 13.0768 136.109 13.1875C136.357 13.2917 136.62 13.3438 136.9 13.3438H138.922V16H136.9ZM157.457 14.584C156.806 15.1374 156.08 15.5638 155.279 15.8633C154.479 16.1562 153.645 16.3027 152.779 16.3027C152.115 16.3027 151.474 16.2148 150.855 16.0391C150.243 15.8698 149.671 15.6289 149.137 15.3164C148.603 14.9974 148.115 14.6198 147.672 14.1836C147.229 13.7409 146.852 13.2526 146.539 12.7188C146.227 12.1784 145.982 11.599 145.807 10.9805C145.637 10.362 145.553 9.7207 145.553 9.05664C145.553 8.39258 145.637 7.75456 145.807 7.14258C145.982 6.5306 146.227 5.95768 146.539 5.42383C146.852 4.88346 147.229 4.39518 147.672 3.95898C148.115 3.51628 148.603 3.13867 149.137 2.82617C149.671 2.51367 150.243 2.27279 150.855 2.10352C151.474 1.92773 152.115 1.83984 152.779 1.83984C153.645 1.83984 154.479 1.98958 155.279 2.28906C156.08 2.58203 156.806 3.00521 157.457 3.55859L155.992 6C155.569 5.57031 155.081 5.23503 154.527 4.99414C153.974 4.74674 153.391 4.62305 152.779 4.62305C152.167 4.62305 151.591 4.74023 151.051 4.97461C150.517 5.20898 150.048 5.52799 149.645 5.93164C149.241 6.32878 148.922 6.79753 148.688 7.33789C148.453 7.87174 148.336 8.44466 148.336 9.05664C148.336 9.67513 148.453 10.2546 148.688 10.7949C148.922 11.3353 149.241 11.8073 149.645 12.2109C150.048 12.6146 150.517 12.9336 151.051 13.168C151.591 13.4023 152.167 13.5195 152.779 13.5195C153.131 13.5195 153.473 13.4772 153.805 13.3926C154.137 13.3079 154.452 13.1908 154.752 13.041V9.05664H157.457V14.584ZM166.92 14.7793C166.705 14.9746 166.474 15.1602 166.227 15.3359C165.986 15.5052 165.732 15.6549 165.465 15.7852C165.198 15.9089 164.921 16.0065 164.635 16.0781C164.355 16.1562 164.068 16.1953 163.775 16.1953C163.131 16.1953 162.525 16.0814 161.959 15.8535C161.393 15.6257 160.895 15.3034 160.465 14.8867C160.042 14.4635 159.706 13.9525 159.459 13.3535C159.218 12.748 159.098 12.071 159.098 11.3223V5.54102H161.754V11.3223C161.754 11.6738 161.806 11.9896 161.91 12.2695C162.021 12.543 162.167 12.7741 162.35 12.9629C162.532 13.1517 162.743 13.2949 162.984 13.3926C163.232 13.4902 163.495 13.5391 163.775 13.5391C164.049 13.5391 164.306 13.4772 164.547 13.3535C164.794 13.2233 165.009 13.054 165.191 12.8457C165.374 12.6374 165.517 12.403 165.621 12.1426C165.725 11.8757 165.777 11.6022 165.777 11.3223V5.54102H168.443V16H167.799L166.92 14.7793ZM173.629 2.69922C173.629 2.94661 173.58 3.17773 173.482 3.39258C173.391 3.60742 173.264 3.79622 173.102 3.95898C172.939 4.11523 172.747 4.24219 172.525 4.33984C172.311 4.43099 172.079 4.47656 171.832 4.47656C171.585 4.47656 171.35 4.43099 171.129 4.33984C170.914 4.24219 170.725 4.11523 170.562 3.95898C170.406 3.79622 170.279 3.60742 170.182 3.39258C170.09 3.17773 170.045 2.94661 170.045 2.69922C170.045 2.45833 170.09 2.23047 170.182 2.01562C170.279 1.79427 170.406 1.60547 170.562 1.44922C170.725 1.28646 170.914 1.15951 171.129 1.06836C171.35 0.970703 171.585 0.921875 171.832 0.921875C172.079 0.921875 172.311 0.970703 172.525 1.06836C172.747 1.15951 172.939 1.28646 173.102 1.44922C173.264 1.60547 173.391 1.79427 173.482 2.01562C173.58 2.23047 173.629 2.45833 173.629 2.69922ZM173.17 16H170.484V5.54102H173.17V16ZM185.318 16H184.674L183.639 14.5645C183.385 14.7923 183.115 15.0072 182.828 15.209C182.548 15.4043 182.252 15.5768 181.939 15.7266C181.627 15.8698 181.305 15.9837 180.973 16.0684C180.647 16.153 180.315 16.1953 179.977 16.1953C179.241 16.1953 178.548 16.0586 177.896 15.7852C177.252 15.5052 176.686 15.1211 176.197 14.6328C175.715 14.138 175.335 13.5553 175.055 12.8848C174.775 12.2077 174.635 11.472 174.635 10.6777C174.635 9.88997 174.775 9.15755 175.055 8.48047C175.335 7.80339 175.715 7.21745 176.197 6.72266C176.686 6.22786 177.252 5.84049 177.896 5.56055C178.548 5.2806 179.241 5.14062 179.977 5.14062C180.211 5.14062 180.452 5.16016 180.699 5.19922C180.953 5.23828 181.197 5.30339 181.432 5.39453C181.673 5.47917 181.897 5.5931 182.105 5.73633C182.314 5.87956 182.49 6.05534 182.633 6.26367V1.38086H185.318V16ZM182.633 10.6777C182.633 10.3132 182.561 9.96159 182.418 9.62305C182.281 9.27799 182.092 8.97526 181.852 8.71484C181.611 8.44792 181.327 8.23633 181.002 8.08008C180.683 7.91732 180.341 7.83594 179.977 7.83594C179.612 7.83594 179.267 7.90104 178.941 8.03125C178.622 8.16146 178.342 8.35026 178.102 8.59766C177.867 8.83854 177.682 9.13477 177.545 9.48633C177.408 9.83789 177.34 10.235 177.34 10.6777C177.34 11.0618 177.408 11.4264 177.545 11.7715C177.682 12.1165 177.867 12.4193 178.102 12.6797C178.342 12.9401 178.622 13.1452 178.941 13.2949C179.267 13.4447 179.612 13.5195 179.977 13.5195C180.341 13.5195 180.683 13.4414 181.002 13.2852C181.327 13.1224 181.611 12.9108 181.852 12.6504C182.092 12.3835 182.281 12.0807 182.418 11.7422C182.561 11.3971 182.633 11.0423 182.633 10.6777ZM191.52 13.4414C191.624 13.474 191.728 13.4967 191.832 13.5098C191.936 13.5163 192.04 13.5195 192.145 13.5195C192.405 13.5195 192.656 13.4837 192.896 13.4121C193.137 13.3405 193.362 13.2396 193.57 13.1094C193.785 12.9727 193.974 12.8099 194.137 12.6211C194.306 12.4258 194.443 12.2109 194.547 11.9766L196.5 13.9395C196.253 14.291 195.966 14.6068 195.641 14.8867C195.322 15.1667 194.973 15.4043 194.596 15.5996C194.225 15.7949 193.831 15.9414 193.414 16.0391C193.004 16.1432 192.581 16.1953 192.145 16.1953C191.409 16.1953 190.715 16.0586 190.064 15.7852C189.42 15.5117 188.854 15.1309 188.365 14.6426C187.883 14.1543 187.503 13.5749 187.223 12.9043C186.943 12.2272 186.803 11.485 186.803 10.6777C186.803 9.85091 186.943 9.0957 187.223 8.41211C187.503 7.72852 187.883 7.14583 188.365 6.66406C188.854 6.18229 189.42 5.80794 190.064 5.54102C190.715 5.27409 191.409 5.14062 192.145 5.14062C192.581 5.14062 193.007 5.19271 193.424 5.29688C193.84 5.40104 194.234 5.55078 194.605 5.74609C194.983 5.94141 195.335 6.18229 195.66 6.46875C195.986 6.7487 196.272 7.06445 196.52 7.41602L191.52 13.4414ZM192.887 7.94336C192.763 7.89779 192.639 7.86849 192.516 7.85547C192.398 7.84245 192.275 7.83594 192.145 7.83594C191.78 7.83594 191.435 7.9043 191.109 8.04102C190.79 8.17122 190.51 8.36003 190.27 8.60742C190.035 8.85482 189.85 9.1543 189.713 9.50586C189.576 9.85091 189.508 10.2415 189.508 10.6777C189.508 10.7754 189.511 10.8861 189.518 11.0098C189.531 11.1335 189.547 11.2604 189.566 11.3906C189.592 11.5143 189.622 11.6348 189.654 11.752C189.687 11.8691 189.729 11.9733 189.781 12.0645L192.887 7.94336Z" fill="#FD0000"/>
</svg>
